<svg width="814" height="748" viewBox="0 0 814 748" fill="none" xmlns="http://www.w3.org/2000/svg">
<path d="M308.32 552.87C319.658 557.99 332.029 560.413 344.462 559.95C356.895 559.487 369.052 556.15 379.977 550.201C402.97 537.435 418.69 513.811 442.327 502.283C469.147 489.153 500.706 493.968 530.552 493.597C560.399 493.226 594.864 483.667 605.996 455.997C615.419 432.618 604.223 405.108 612.281 381.231C619.028 361.449 637.254 348.392 651.402 333.016C674.862 307.496 688.07 271.74 682.714 237.504C677.359 203.268 651.906 171.937 618.309 163.341C581.794 154.013 541.393 170.814 506.201 157.338C482.515 148.251 465.8 127.096 444.423 113.455C408.445 90.5104 358.619 91.6506 323.728 116.22C305.889 128.775 292.061 146.581 273.511 158.057C225.536 187.826 158.977 168.646 110.238 197.217C71.4527 219.907 54.035 272.91 71.6779 314.234C84.612 344.462 112.811 366.436 124.361 397.201C134.118 423.032 130.95 451.66 133.857 479.14C136.765 506.62 149.341 536.833 175.661 545.191C193.031 550.699 211.668 545.184 229.744 542.918C258.093 539.367 282.499 540.546 308.267 552.87" fill="#ECECEC"/>
<path d="M723.421 629.84C745.866 622.619 769.856 604.867 775.132 581.852C780.409 558.836 774.379 533.994 760.882 514.688C750.548 499.938 733.905 487.57 716.004 489.519C702.714 490.987 691.403 500.006 678.513 503.694C666.634 507.108 653.81 505.898 641.931 509.299C617.042 516.413 601.326 544.337 604.589 570.014C607.851 595.69 627.485 617.565 651.419 627.423C675.353 637.281 702.8 636.233 727.545 628.654" fill="#E0E0E0"/>
<path d="M63.0557 390.724L62.4244 389.566C61.7189 388.265 60.6491 387.198 59.3461 386.496L58.1941 385.853L59.3529 385.235C60.6666 384.545 61.7484 383.485 62.464 382.185L63.1076 381.047L63.7389 382.192C64.448 383.494 65.5165 384.564 66.8172 385.275L67.9693 385.905L66.8104 386.536C65.5058 387.232 64.4267 388.285 63.6994 389.572L63.0557 390.724Z" fill="#CFFFEB"/>
<path d="M725.134 257.837L724.516 256.692C723.807 255.391 722.739 254.321 721.438 253.609L720.273 252.979L721.445 252.348C722.749 251.652 723.828 250.599 724.556 249.312L725.186 248.16L725.817 249.319C726.531 250.613 727.599 251.678 728.896 252.388L730.061 253.032L728.889 253.649C727.581 254.347 726.501 255.405 725.778 256.699L725.134 257.837Z" fill="#CFFFEB"/>
<path d="M11.5484 221.826L10.4832 219.829C9.27259 217.579 7.43776 215.725 5.19901 214.491L3.21259 213.392L5.2106 212.328C7.46244 211.118 9.31702 209.284 10.5517 207.047L11.6382 205.061L12.7166 207.058C13.9272 209.309 15.7621 211.162 18.0008 212.396L19.9873 213.482L17.9892 214.56C15.7374 215.77 13.8828 217.603 12.6481 219.841L11.5484 221.826Z" fill="#CFFFEB"/>
<path d="M739.562 129.814L738.483 127.818C737.273 125.567 735.438 123.714 733.199 122.48L731.213 121.381L733.211 120.303C735.463 119.093 737.317 117.259 738.552 115.022L739.651 113.05L740.717 115.033C741.927 117.284 743.762 119.137 746.001 120.371L747.987 121.47L745.989 122.548C743.737 123.758 741.883 125.592 740.648 127.829L739.562 129.814Z" fill="#CFFFEB"/>
<path d="M446.868 582.018L445.789 580.021C444.578 577.77 442.744 575.917 440.505 574.683L438.519 573.584L440.517 572.506C442.768 571.296 444.623 569.462 445.858 567.225L446.957 565.253L448.036 567.237C449.246 569.487 451.081 571.341 453.32 572.575L455.266 573.727L453.282 574.804C451.03 576.014 449.175 577.848 447.94 580.085L446.868 582.018Z" fill="#CFFFEB"/>
<path d="M163.356 402.521L162.291 400.525C161.08 398.274 159.245 396.421 157.007 395.187L155.02 394.088L157.018 393.023C159.27 391.813 161.125 389.979 162.359 387.742L163.446 385.757L164.524 387.754C165.735 390.004 167.57 391.858 169.808 393.092L171.795 394.177L169.797 395.255C167.545 396.465 165.69 398.299 164.456 400.536L163.356 402.521Z" fill="#CFFFEB"/>
<path d="M345.548 154.814L344.483 152.818C343.273 150.567 341.438 148.714 339.199 147.48L337.213 146.381L339.211 145.316C341.462 144.106 343.317 142.272 344.552 140.035L345.638 138.05L346.717 140.047C347.927 142.297 349.762 144.151 352.001 145.385L353.987 146.47L351.989 147.548C349.737 148.758 347.883 150.592 346.648 152.829L345.548 154.814Z" fill="#CFFFEB"/>
<path d="M596.83 392.446L596.199 391.288C595.479 389.995 594.413 388.927 593.121 388.205L591.968 387.575L593.127 386.944C594.432 386.248 595.511 385.195 596.238 383.908L596.882 382.757L597.513 383.915C598.218 385.212 599.282 386.278 600.578 386.984L601.744 387.628L600.572 388.245C599.27 388.947 598.196 390.005 597.474 391.295L596.83 392.446Z" fill="#FAFAFA"/>
<path d="M498.064 206.783L497.432 205.624C496.728 204.327 495.664 203.262 494.367 202.555L493.202 201.911L494.374 201.294C495.672 200.596 496.739 199.536 497.445 198.244L498.089 197.106L498.72 198.251C499.429 199.552 500.498 200.622 501.799 201.334L502.951 201.964L501.792 202.595C500.487 203.291 499.408 204.344 498.681 205.631L498.064 206.783Z" fill="#ECECEC"/>
<path d="M653.068 128.704L652.437 127.546C651.724 126.251 650.656 125.187 649.359 124.477L648.193 123.833L649.366 123.216C650.674 122.518 651.754 121.46 652.477 120.166L653.12 119.028L653.752 120.173C654.452 121.476 655.517 122.548 656.817 123.255L657.982 123.886L656.81 124.516C655.506 125.209 654.43 126.264 653.712 127.553L653.068 128.704Z" fill="#CFFFEB"/>
<path d="M266.494 603.052L265.863 601.894C265.162 600.601 264.108 599.532 262.825 598.812L261.673 598.182L262.831 597.564C264.123 596.857 265.188 595.8 265.903 594.514L266.546 593.363L267.164 594.521C267.856 595.812 268.901 596.881 270.176 597.603L271.315 598.233L270.169 598.851C268.89 599.552 267.834 600.6 267.125 601.874L266.494 603.052Z" fill="#7E40D6"/>
<path d="M657.729 581.305L656.285 578.656C654.681 575.698 652.273 573.254 649.337 571.607L646.703 570.166L649.353 568.754C652.305 567.139 654.74 564.721 656.375 561.78L657.847 559.147L659.261 561.795C660.842 564.749 663.231 567.193 666.148 568.844L668.752 570.285L666.132 571.697C663.206 573.3 660.793 575.697 659.17 578.611L657.729 581.305Z" fill="#7E40D6"/>
<path d="M444.892 155.38L444.26 154.222C443.562 152.929 442.508 151.864 441.222 151.153L440.07 150.509L441.229 149.892C442.525 149.192 443.592 148.133 444.3 146.842L444.943 145.704L445.561 146.849C446.257 148.151 447.317 149.223 448.613 149.931L449.765 150.561L448.606 151.192C447.307 151.886 446.235 152.94 445.522 154.229L444.892 155.38Z" fill="#7E40D6"/>
<path d="M766.518 492.781L765.36 490.655C764.07 488.274 762.127 486.311 759.759 484.997L757.668 483.841L759.771 482.707C762.153 481.418 764.117 479.476 765.432 477.109L766.614 474.996L767.748 477.122C769.037 479.502 770.981 481.466 773.349 482.779L775.439 483.936L773.337 485.07C770.954 486.358 768.99 488.3 767.675 490.667L766.518 492.781Z" fill="#7E40D6"/>
<path d="M243.825 120.716L243.193 119.558C242.492 118.264 241.439 117.196 240.155 116.475L239.003 115.845L240.162 115.214C241.455 114.517 242.521 113.463 243.233 112.178L243.877 111.026L244.495 112.185C245.194 113.481 246.254 114.547 247.546 115.254L248.685 115.897L247.54 116.515C246.242 117.217 245.171 118.275 244.455 119.565L243.825 120.716Z" fill="#7E40D6"/>
<path d="M260.635 264.964L259.683 263.18C258.594 261.192 256.965 259.553 254.983 258.453L253.208 257.462L254.993 256.51C256.992 255.429 258.641 253.799 259.744 251.813L260.715 250.039L261.687 251.823C262.756 253.824 264.381 255.473 266.367 256.571L268.142 257.542L266.357 258.513C264.364 259.588 262.723 261.211 261.626 263.191L260.635 264.964Z" fill="#7E40D6"/>
<path d="M700.424 316.622L699.792 315.464C699.091 314.171 698.038 313.102 696.754 312.382L695.602 311.752L696.761 311.134C698.052 310.427 699.117 309.37 699.832 308.084L700.476 306.933L701.094 308.091C701.806 309.381 702.862 310.448 704.145 311.173L705.297 311.804L704.139 312.421C702.848 313.133 701.78 314.189 701.054 315.471L700.424 316.622Z" fill="#7E40D6"/>
<path d="M129.558 344.306L128.627 342.619C127.599 340.714 126.046 339.145 124.151 338.097L122.434 337.149L124.161 336.219C126.067 335.191 127.637 333.639 128.686 331.745L129.634 330.029L130.525 331.755C131.557 333.671 133.126 335.243 135.041 336.277L136.719 337.225L135.031 338.155C133.105 339.169 131.519 340.724 130.467 342.629L129.558 344.306Z" fill="#7E40D6"/>
<path d="M584.766 209.662L584.477 209.077C584.155 208.416 583.645 207.864 583.011 207.489L582.455 207.141L583.041 206.852C583.7 206.526 584.252 206.018 584.63 205.387L584.978 204.832L585.267 205.417C585.589 206.082 586.098 206.639 586.733 207.018L587.289 207.353L586.703 207.642C586.04 207.968 585.485 208.476 585.101 209.107L584.766 209.662Z" fill="#455A64"/>
<path d="M143.483 506.678L142.005 503.998C140.407 500.946 137.93 498.443 134.894 496.814L132.228 495.308L134.909 493.831C137.963 492.234 140.467 489.759 142.098 486.724L143.604 484.06L145.082 486.74C146.68 489.792 149.158 492.294 152.194 493.924L154.859 495.43L152.178 496.906C149.124 498.503 146.62 500.979 144.99 504.014L143.483 506.678Z" fill="#7E40D6"/>
<path d="M572.331 475.663L572.015 475.077C571.66 474.435 571.134 473.904 570.496 473.542L569.913 473.221L570.499 472.919C571.143 472.56 571.675 472.03 572.035 471.387L572.357 470.765L572.659 471.337C573.013 471.988 573.544 472.525 574.192 472.885L574.761 473.194L574.189 473.509C573.542 473.862 573.006 474.388 572.64 475.027L572.331 475.663Z" fill="#455A64"/>
<path d="M745.02 589.212L744.327 587.871C743.506 586.399 742.292 585.183 740.82 584.359L739.517 583.622L740.828 582.931C742.318 582.122 743.548 580.906 744.373 579.425L745.079 578.123L745.801 579.433C746.61 580.913 747.814 582.139 749.278 582.976L750.734 583.682L749.392 584.404C747.923 585.217 746.707 586.42 745.878 587.88L745.02 589.212Z" fill="#7E40D6"/>
<path d="M413.087 538.803L412.021 536.819C410.811 534.569 408.976 532.715 406.737 531.481L404.751 530.382L406.749 529.304C409.001 528.094 410.855 526.261 412.09 524.023L413.176 522.038L414.255 524.035C415.465 526.285 417.3 528.139 419.539 529.373L421.525 530.472L419.527 531.55C417.275 532.76 415.421 534.593 414.186 536.831L413.087 538.803Z" fill="#7E40D6"/>
<path d="M756.871 155.721L755.806 153.724C754.595 151.473 752.76 149.62 750.521 148.386L748.535 147.3L750.533 146.222C752.785 145.012 754.639 143.179 755.874 140.941L756.96 138.956L758.039 140.953C759.25 143.203 761.084 145.057 763.323 146.291L765.31 147.39L763.312 148.454C761.06 149.664 759.205 151.498 757.97 153.735L756.871 155.721Z" fill="#7E40D6"/>
<path d="M93.5465 247.007L91.169 242.604C88.5001 237.643 84.4551 233.557 79.5196 230.836L75.1697 228.413L79.5453 226.037C84.5096 223.37 88.5982 219.327 91.3201 214.395L93.7445 210.047L96.0637 214.391C98.7326 219.352 102.778 223.438 107.713 226.159L112.092 228.582L107.687 230.958C102.723 233.625 98.6345 237.668 95.9126 242.601L93.5465 247.007Z" fill="#7E40D6"/>
<path d="M762.051 312.926C744.992 313.439 731.58 327.675 732.093 344.723C732.606 361.771 746.851 375.176 763.909 374.663C780.967 374.15 794.38 359.914 793.867 342.866C793.353 325.818 779.109 312.413 762.051 312.926Z" fill="#B5B1FD"/>
<path opacity="0.4" d="M182.023 83.3049C183.285 81.7108 184.991 80.5266 186.926 79.902C188.862 79.2774 190.939 79.2405 192.895 79.796C194.851 80.3514 196.599 81.4744 197.916 83.0226C199.234 84.5709 200.063 86.4749 200.297 88.4939C200.532 90.5128 200.162 92.5559 199.234 94.3647C198.307 96.1735 196.863 97.6667 195.086 98.6554C193.309 99.6441 191.279 100.084 189.252 99.9191C187.225 99.7543 185.293 98.9923 183.699 97.7296C181.564 96.0379 180.188 93.5685 179.874 90.8638C179.56 88.1591 180.333 85.4404 182.023 83.3049V83.3049Z" fill="white"/>
<path opacity="0.4" d="M175.024 115.59C175.757 114.664 176.75 113.977 177.874 113.614C178.999 113.252 180.206 113.231 181.343 113.554C182.48 113.877 183.496 114.53 184.261 115.429C185.027 116.329 185.509 117.436 185.645 118.609C185.782 119.782 185.567 120.97 185.029 122.021C184.491 123.072 183.652 123.941 182.62 124.516C181.588 125.092 180.408 125.348 179.23 125.254C178.052 125.159 176.928 124.718 176.001 123.985C175.385 123.498 174.871 122.895 174.489 122.209C174.106 121.524 173.863 120.77 173.772 119.99C173.681 119.21 173.745 118.421 173.96 117.666C174.174 116.911 174.536 116.206 175.024 115.59V115.59Z" fill="white"/>
<path d="M491.875 79.9928C476.115 80.5877 463.822 93.8382 464.418 109.589C465.013 125.339 478.271 137.625 494.031 137.03C509.791 136.435 522.084 123.185 521.488 107.434C520.893 91.684 507.635 79.3979 491.875 79.9928Z" fill="#CFFFEB"/>
<path d="M173.562 441.726C166.241 449.295 166.446 461.362 174.02 468.679C181.594 475.995 193.668 475.79 200.989 468.221C208.31 460.652 208.104 448.584 200.531 441.268C192.957 433.952 180.882 434.156 173.562 441.726Z" fill="#B5B1FD"/>
<path d="M181.015 462.224C180.996 462.838 180.795 463.432 180.439 463.931C180.082 464.431 179.586 464.814 179.011 465.031C178.437 465.249 177.812 465.292 177.213 465.155C176.615 465.017 176.07 464.706 175.649 464.259C175.227 463.813 174.947 463.252 174.845 462.647C174.742 462.042 174.821 461.42 175.071 460.86C175.322 460.3 175.733 459.826 176.252 459.499C176.772 459.172 177.377 459.006 177.991 459.022C178.4 459.033 178.803 459.125 179.177 459.292C179.551 459.458 179.888 459.698 180.169 459.995C180.45 460.293 180.669 460.643 180.815 461.025C180.96 461.408 181.028 461.815 181.015 462.224V462.224Z" fill="#7E40D6"/>
<path d="M174.838 454.931C174.831 455.292 174.717 455.643 174.509 455.938C174.302 456.233 174.012 456.461 173.675 456.591C173.339 456.721 172.971 456.748 172.619 456.668C172.266 456.589 171.946 456.407 171.698 456.145C171.45 455.883 171.285 455.553 171.225 455.197C171.165 454.841 171.212 454.476 171.36 454.147C171.509 453.818 171.752 453.541 172.058 453.35C172.365 453.16 172.721 453.065 173.082 453.077C173.56 453.093 174.012 453.297 174.341 453.644C174.669 453.991 174.848 454.454 174.838 454.931V454.931Z" fill="#7E40D6"/>
<path d="M177.286 449.395C177.132 449.363 176.995 449.28 176.896 449.158C176.798 449.037 176.744 448.885 176.745 448.728C176.746 448.572 176.801 448.421 176.901 448.3C177.001 448.18 177.139 448.098 177.293 448.068C177.47 448.075 177.637 448.153 177.758 448.282C177.879 448.412 177.944 448.584 177.94 448.761C177.926 448.928 177.852 449.085 177.732 449.201C177.612 449.318 177.453 449.387 177.286 449.395Z" fill="#7E40D6"/>
<path opacity="0.2" d="M504.954 116.378C505.871 116.281 506.797 116.458 507.614 116.886C508.43 117.315 509.101 117.976 509.542 118.786C509.983 119.596 510.173 120.518 510.089 121.437C510.004 122.355 509.65 123.227 509.069 123.944C508.488 124.66 507.708 125.188 506.827 125.461C505.946 125.734 505.004 125.74 504.119 125.478C503.235 125.215 502.449 124.697 501.859 123.987C501.27 123.278 500.905 122.41 500.809 121.493C500.682 120.266 501.046 119.038 501.823 118.079C502.6 117.12 503.726 116.508 504.954 116.378V116.378Z" fill="#B5B1FD"/>
<path opacity="0.2" d="M495.361 127.001C495.879 126.959 496.399 127.07 496.856 127.321C497.312 127.571 497.684 127.95 497.927 128.41C498.17 128.871 498.271 129.392 498.22 129.91C498.169 130.428 497.966 130.919 497.637 131.323C497.309 131.726 496.869 132.024 496.372 132.18C495.876 132.336 495.344 132.343 494.844 132.199C494.343 132.056 493.896 131.768 493.558 131.373C493.22 130.977 493.005 130.491 492.941 129.975C492.896 129.62 492.925 129.259 493.023 128.915C493.122 128.571 493.29 128.25 493.516 127.972C493.742 127.694 494.022 127.465 494.339 127.298C494.656 127.132 495.003 127.031 495.361 127.001Z" fill="#B5B1FD"/>
<path opacity="0.2" d="M486.635 124.462C486.657 124.657 486.619 124.855 486.528 125.03C486.437 125.204 486.296 125.348 486.123 125.443C485.951 125.537 485.754 125.578 485.557 125.561C485.361 125.544 485.174 125.469 485.021 125.345C484.867 125.222 484.754 125.056 484.695 124.868C484.636 124.68 484.634 124.479 484.689 124.29C484.744 124.101 484.854 123.933 485.005 123.806C485.156 123.68 485.342 123.601 485.538 123.58C485.668 123.564 485.8 123.574 485.926 123.61C486.053 123.646 486.17 123.707 486.273 123.789C486.375 123.871 486.46 123.973 486.522 124.089C486.584 124.204 486.623 124.331 486.635 124.462V124.462Z" fill="white"/>
<path d="M304.293 448.234C347.364 537.726 454.828 575.358 544.321 532.287C633.813 489.216 671.445 381.752 628.374 292.259C585.303 202.767 477.839 165.135 388.346 208.206C298.854 251.277 261.222 358.741 304.293 448.234Z" fill="#B5B1FD"/>
<path d="M645.177 373.334C645.177 420.189 626.16 465.124 592.31 498.256C558.459 531.387 512.549 550 464.677 550C416.805 550 370.895 531.387 337.044 498.256C303.194 465.124 284.177 420.189 284.177 373.334C284.095 342.69 292.27 312.566 307.878 286C308.929 324.552 322.849 361.705 347.509 391.783C372.17 421.861 406.215 443.208 444.441 452.561C482.666 461.914 522.969 458.76 559.19 443.579C595.411 428.399 625.556 402.027 645.02 368.495C645.177 370.108 645.177 371.721 645.177 373.334Z" fill="#928DED"/>
<path d="M350.876 231.331C348.412 233.38 147.39 158.239 136.22 207.918C125.049 257.597 271.008 373.766 437.224 452.664C603.441 531.562 786.716 588.25 804.491 539.947C822.266 491.644 645.749 378.1 645.749 378.1L642.86 403.464C642.86 403.464 752.191 470.711 742.939 513.522C733.686 556.332 596.462 513.776 446.244 433.268C296.026 352.759 174.628 263.127 190.458 232.59C206.289 202.052 331.263 250.024 331.263 250.024L350.876 231.331Z" fill="#7E40D6"/>
<path opacity="0.4" d="M350.876 231.331C348.412 233.38 147.39 158.239 136.22 207.918C125.049 257.597 271.008 373.766 437.224 452.664C603.441 531.562 786.715 588.25 804.491 539.947C822.266 491.644 645.749 378.1 645.749 378.1L642.86 403.464C642.86 403.464 752.191 470.711 742.938 513.522C733.686 556.332 596.462 513.776 446.244 433.268C296.026 352.759 174.628 263.127 190.458 232.59C206.289 202.052 331.263 250.024 331.263 250.024L350.876 231.331Z" fill="#7E40D6"/>
<path d="M747.363 464.848L744.015 481.143C768.68 508.388 776.017 527.877 780.45 548.453C776.126 501.168 759.153 482.507 747.363 464.848Z" fill="#ECECEC"/>
<circle cx="589.183" cy="321.015" r="9.01535" fill="#ECECEC"/>
<circle cx="589.183" cy="361.015" r="9.01535" fill="#ECECEC"/>
</svg>
